<svg width="305.74286499023435" height="101.6388443075644" viewBox="0 0 370 123" class="looka-1j8o68f">
  <defs id="SvgjsDefs1349"/>
  <g id="SvgjsG1350" featurekey="rootContainer" transform="matrix(1,0,0,1,0,0)" fill="#07689f">
    <rect y="0" height="1" width="1" opacity="0"/>
    <rect y="118" width="370" height="5"/>
  </g>
  <g id="SvgjsG1351" featurekey="symbolFeature-0" transform="matrix(1.0896636849744992,0,0,1.0896636849744992,-6.755914639005041,9.136365714732175)" fill="#07689f">
    <polygon xmlns="http://www.w3.org/2000/svg" points="26.2,35.4 6.2,47.9 6.2,52.1 26.2,64.6 28.8,60.4 12.2,50 28.8,39.6 "/>
    <polygon xmlns="http://www.w3.org/2000/svg" points="71.2,39.6 87.8,50 71.2,60.4 73.8,64.6 93.8,52.1 93.8,47.9 73.8,35.4 "/>
    <polygon xmlns="http://www.w3.org/2000/svg" points="51.7,28.7 39,55.9 52.6,62.2 53.6,60 65.2,35 68.4,28.2 54.8,21.9 "/>
    <polygon xmlns="http://www.w3.org/2000/svg" points="38.4,74.9 50.5,66.8 36.9,60.4 "/>
  </g>
  <g id="SvgjsG1352" featurekey="nameFeature-0" transform="matrix(1.6735400679222654,0,0,1.6735400679222654,112.99175223769572,5.281096441398091)" fill="#07689f">
    <path d="M1.2 30.240000000000002 l4.04 0 c0.08 5.16 0.48 6.16 1.92 6.16 c1.96 0 1.96 -1.64 1.96 -6 c0 -6.4 -7.92 -4.68 -7.92 -13.2 c0 -5 0 -9.6 6 -9.6 c4.44 0 5.64 2.52 5.92 8.56 l-4 0 c-0.16 -4.36 -0.64 -5.36 -1.92 -5.36 c-1.96 0 -1.96 2.16 -1.96 6.4 c0 6.2 7.96 4 7.96 13.2 c0 5.6 0 10 -6.04 10 c-4.64 0 -5.72 -2.76 -5.96 -10.16 z M18.9 40 l0 -32 l4 0 l0 32 l-4 0 z M27.799999999999997 11.600000000000001 l0 -3.6 l12 0 l0 3.6 l-4 0 l0 28.4 l-4 0 l0 -28.4 l-4 0 z M44.7 40 l0 -32 l9.2 0 l0 3.2 l-5.2 0 l0 10.4 l4.4 0 l0 3.2 l-4.4 0 l0 11.2 l5.2 0 l0 4 l-9.2 0 z M58.400000000000006 30.240000000000002 l4.04 0 c0.08 5.16 0.48 6.16 1.92 6.16 c1.96 0 1.96 -1.64 1.96 -6 c0 -6.4 -7.92 -4.68 -7.92 -13.2 c0 -5 0 -9.6 6 -9.6 c4.44 0 5.64 2.52 5.92 8.56 l-4 0 c-0.16 -4.36 -0.64 -5.36 -1.92 -5.36 c-1.96 0 -1.96 2.16 -1.96 6.4 c0 6.2 7.96 4 7.96 13.2 c0 5.6 0 10 -6.04 10 c-4.64 0 -5.72 -2.76 -5.96 -10.16 z M76.1 40 l0 -32 l6.48 0 c4.12 0 5.2 2.52 5.52 8.56 l0 1.28 c-0.32 6.04 -1.4 8.56 -5.52 8.56 l-2.48 0 l0 13.6 l-4 0 z M80.1 23.2 l2.48 0 c1.2 0 1.64 -1 1.8 -5.36 l0 -1.28 c-0.16 -4.36 -0.6 -5.36 -1.8 -5.36 l-2.48 0 l0 12 z M93.39999999999999 40 l0 -32 l6.48 0 c4.12 0 5.52 2.52 5.52 7.36 c0 4.36 -0.52 6.84 -1.76 8.04 l0 0.24 c1.04 0.36 1.36 2.24 1.76 6.92 l0.8 9.44 l-4 0 l-0.52 -9.44 c-0.28 -4.76 -1 -5.76 -2.2 -5.76 l-2.08 0 l0 15.2 l-4 0 z M97.39999999999999 21.6 l2.48 0 c1.4 0 1.8 -1.4 1.8 -6.24 c0 -3.16 -0.6 -4.16 -1.8 -4.16 l-2.48 0 l0 10.4 z M111.89999999999999 40 l0 -32 l4 0 l0 32 l-4 0 z M122.39999999999999 40 l0 -32 l3.6 0 l5.24 19.6 l-0.04 -0.4 l0 -19.2 l4 0 l0 32 l-3.6 0 l-5.24 -17.6 l0.04 0.4 l0 17.2 l-4 0 z M141.29999999999998 23.16 c0 -11.16 0 -15.56 6 -15.56 c4.56 0 5.64 2.52 5.92 8.56 l-3.72 0 c-0.16 -4.36 -0.6 -5.36 -2.2 -5.36 c-2.24 0 -2.24 1.96 -2.24 12.36 c0 11.56 0 13.24 2.24 13.24 c2.12 0 2.24 -1.52 2.24 -10 l-2.64 0 l0 -3.2 l6.4 0 l0 1.56 c0 11.2 0 15.64 -6 15.64 s-6 -4.44 -6 -17.24 z"/>
  </g>
  <g id="SvgjsG1353" featurekey="sloganFeature-0" transform="matrix(1.023504004647636,0,0,1.023504004647636,112.37982980666742,85.54889209555975)" fill="#07689f">
    <path d="M2.56 18.78 l0 -10.76 c0 -0.54 0.38 -0.66 0.66 -0.66 l3.2 0 c2.64 0 3.94 1.26 3.94 3.74 l0 5.12 c0 1.56 -1.22 3.2 -3.88 3.2 l-3.26 0 c-0.28 0 -0.66 -0.16 -0.66 -0.64 z M9.04 16.22 l0 -5.12 c0 -1.64 -0.88 -2.4 -2.62 -2.4 l-2.54 0 l0 9.42 l2.6 0 c1.22 0 2.56 -0.66 2.56 -1.9 z M15.16 18.78 l0 -10.78 c0 -0.42 0.32 -0.64 0.64 -0.64 s0.66 0.22 0.66 0.64 l0 10.78 c0 0.86 -1.3 0.86 -1.3 0 z M21.220000000000002 15.879999999999999 l0 -4.82 c0 -2.88 1.58 -3.74 3.9 -3.74 c1.92 0 3.78 0.98 3.78 3 c0 0.44 -0.32 0.66 -0.66 0.66 s-0.68 -0.22 -0.68 -0.66 c0 -1.02 -1.12 -1.7 -2.44 -1.7 c-1.82 0 -2.58 0.74 -2.58 2.44 l0 4.82 c0 1.74 0.96 2.28 2.58 2.28 c1.92 0 2.6 -0.92 2.6 -2.7 l0 -0.84 l-1.8 0 c-0.42 0 -0.64 -0.32 -0.64 -0.66 s0.22 -0.68 0.64 -0.68 l2.5 0 c0.4 0 0.62 0.4 0.62 0.68 l0 1.5 c0 2.88 -1.12 4 -3.92 4 c-2.64 0 -3.9 -0.96 -3.9 -3.58 z M33.760000000000005 18.78 l0 -10.78 c0 -0.42 0.32 -0.64 0.64 -0.64 s0.66 0.22 0.66 0.64 l0 10.78 c0 0.86 -1.3 0.86 -1.3 0 z M39.7 7.359999999999999 l6.04 0 c0.42 0 0.62 0.34 0.62 0.68 s-0.2 0.66 -0.62 0.66 l-2.28 0 l0 10.06 c0 0.42 -0.34 0.64 -0.68 0.64 s-0.66 -0.22 -0.66 -0.64 l0 -10.06 l-2.42 0 c-0.42 0 -0.62 -0.32 -0.62 -0.66 s0.2 -0.68 0.62 -0.68 z M56.46 18.86 l-0.78 -2.54 l-3.72 0 l-0.74 2.5 c-0.26 0.86 -1.58 0.6 -1.3 -0.28 c1.04 -3.5 2.06 -7.06 3.08 -10.6 c0.12 -0.38 0.44 -0.58 0.76 -0.58 c0.3 0 0.62 0.2 0.74 0.58 l3.18 10.6 c0.22 0.76 -0.96 1.18 -1.22 0.32 z M53.800000000000004 10.06 l-1.44 4.92 l2.94 0 c-0.5 -1.68 -0.96 -3.12 -1.5 -4.92 z M62.12 18.76 l0 -10.76 c0 -0.42 0.32 -0.64 0.64 -0.64 s0.66 0.22 0.66 0.64 l0 10.06 l3.98 0 c0.44 0 0.68 0.34 0.68 0.68 s-0.24 0.66 -0.68 0.66 l-4.62 0 c-0.4 0 -0.66 -0.32 -0.66 -0.64 z M88.12 18.76 l0 -8.92 l-3.18 9 c-0.18 0.5 -0.84 0.62 -1.04 0 l-3.08 -9 l0 8.92 c0 0.42 -0.32 0.64 -0.66 0.64 s-0.68 -0.22 -0.68 -0.64 l0 -10.74 c0 -0.38 0.28 -0.66 0.68 -0.66 l0.64 0 c0.44 0 0.68 0.32 0.78 0.62 c0.96 2.86 1.84 5.4 2.82 8.28 l2.9 -8.34 c0.1 -0.28 0.28 -0.56 0.7 -0.56 l0.8 0 c0.58 0 0.66 0.32 0.66 0.64 l0 10.76 c0 0.42 -0.34 0.64 -0.68 0.64 s-0.66 -0.22 -0.66 -0.64 z  M100.36000000000001 18.86 l-0.78 -2.54 l-3.72 0 l-0.74 2.5 c-0.26 0.86 -1.58 0.6 -1.3 -0.28 c1.04 -3.5 2.06 -7.06 3.08 -10.6 c0.12 -0.38 0.44 -0.58 0.76 -0.58 c0.3 0 0.62 0.2 0.74 0.58 l3.18 10.6 c0.22 0.76 -0.96 1.18 -1.22 0.32 z M97.7 10.06 l-1.44 4.92 l2.94 0 c-0.5 -1.68 -0.96 -3.12 -1.5 -4.92 z M106.04 18.78 l0 -10.76 c0 -0.54 0.38 -0.66 0.66 -0.66 l3.2 0 c2.64 0 3.94 1.26 3.94 3.74 l0 5.12 c0 1.56 -1.22 3.2 -3.88 3.2 l-3.26 0 c-0.28 0 -0.66 -0.16 -0.66 -0.64 z M112.52000000000001 16.22 l0 -5.12 c0 -1.64 -0.88 -2.4 -2.62 -2.4 l-2.54 0 l0 9.42 l2.6 0 c1.22 0 2.56 -0.66 2.56 -1.9 z M118.60000000000001 18.7 l0 -10.64 c0 -0.46 0.36 -0.7 0.7 -0.7 l4.6 0 c0.44 0 0.66 0.32 0.66 0.66 s-0.22 0.68 -0.66 0.68 l-3.96 0 l0 3.88 l3.14 0 c0.46 0 0.68 0.32 0.68 0.66 s-0.24 0.7 -0.68 0.7 l-3.14 0 l0 4.14 l3.96 0 c0.42 0 0.64 0.34 0.64 0.66 c0 0.34 -0.22 0.66 -0.64 0.66 l-4.6 0 c-0.34 0 -0.7 -0.12 -0.7 -0.7 z M136.35999999999999 17.68 c-0.44 -0.82 0.68 -1.42 1.2 -0.6 c0.26 0.42 1.04 1.14 2.28 1.14 c0.52 0 1.82 -0.38 2 -1.86 c0.12 -0.9 -0.74 -1.78 -2.22 -2.52 c-2.08 -0.98 -3.66 -1.84 -3.66 -3.56 c0 -2.04 1.72 -3 3.56 -3 c1.66 0 2.58 1.02 2.9 1.54 c0.46 0.74 -0.54 1.46 -1.1 0.74 c-0.28 -0.36 -0.82 -0.96 -1.8 -0.96 c-1.1 0 -2.24 0.52 -2.24 1.68 c0 0.92 1.02 1.44 2.54 2.16 c1.78 0.88 3.64 1.74 3.36 4.08 c-0.22 1.84 -1.62 3.02 -3.34 3.02 c-1.3 0 -2.9 -0.7 -3.48 -1.86 z M147.64 18.78 l0 -10.78 c0 -0.42 0.32 -0.64 0.64 -0.64 s0.66 0.22 0.66 0.64 l0 10.78 c0 0.86 -1.3 0.86 -1.3 0 z M162.54000000000002 18.76 l0 -8.92 l-3.18 9 c-0.18 0.5 -0.84 0.62 -1.04 0 l-3.08 -9 l0 8.92 c0 0.42 -0.32 0.64 -0.66 0.64 s-0.68 -0.22 -0.68 -0.64 l0 -10.74 c0 -0.38 0.28 -0.66 0.68 -0.66 l0.64 0 c0.44 0 0.68 0.32 0.78 0.62 c0.96 2.86 1.84 5.4 2.82 8.28 l2.9 -8.34 c0.1 -0.28 0.28 -0.56 0.7 -0.56 l0.8 0 c0.58 0 0.66 0.32 0.66 0.64 l0 10.76 c0 0.42 -0.34 0.64 -0.68 0.64 s-0.66 -0.22 -0.66 -0.64 z  M175.46 10.28 l0 2.5 c0 2.38 -1.24 3.14 -3.34 3.14 l-1.86 0 l0 2.84 c0 0.42 -0.34 0.64 -0.66 0.64 c-0.34 0 -0.66 -0.22 -0.66 -0.64 l0 -10.74 c0 -0.38 0.32 -0.66 0.66 -0.66 l2.7 0 c1.1 0 3.16 0.22 3.16 2.92 z M172.29999999999998 8.7 l-2.04 0 l0 5.86 l1.86 0 c0.98 0 2.04 -0.24 2.02 -1.8 l-0.02 -2.48 c0 -0.48 -0.08 -1.58 -1.82 -1.58 z M179.6 18.76 l0 -10.76 c0 -0.42 0.32 -0.64 0.64 -0.64 s0.66 0.22 0.66 0.64 l0 10.06 l3.98 0 c0.44 0 0.68 0.34 0.68 0.68 s-0.24 0.66 -0.68 0.66 l-4.62 0 c-0.4 0 -0.66 -0.32 -0.66 -0.64 z M189.48 18.7 l0 -10.64 c0 -0.46 0.36 -0.7 0.7 -0.7 l4.6 0 c0.44 0 0.66 0.32 0.66 0.66 s-0.22 0.68 -0.66 0.68 l-3.96 0 l0 3.88 l3.14 0 c0.46 0 0.68 0.32 0.68 0.66 s-0.24 0.7 -0.68 0.7 l-3.14 0 l0 4.14 l3.96 0 c0.42 0 0.64 0.34 0.64 0.66 c0 0.34 -0.22 0.66 -0.64 0.66 l-4.6 0 c-0.34 0 -0.7 -0.12 -0.7 -0.7 z M200.44 19.54 c-0.6 0 -1.06 -0.44 -1.06 -1.06 s0.46 -1.06 1.06 -1.06 c0.62 0 1.08 0.44 1.08 1.06 s-0.46 1.06 -1.08 1.06 z"/>
  </g>
</svg>
